SplineFontDB: 3.2
FontName: MFEKSans-Rounded-Regular
FullName: MFEK Sans Rounded Regular
FamilyName: MFEK Sans Rounded
Weight: Regular
Copyright: 
Version: 0.1
ItalicAngle: 0
UnderlinePosition: -200
UnderlineWidth: 100
Ascent: 1600
Descent: 400
InvalidEm: 0
LayerCount: 2
Layer: 0 0 "Back" 1
Layer: 1 0 "Fore" 0
XUID: [1021 31 -699969567 16487490]
FSType: 0
OS2Version: 0
OS2_WeightWidthSlopeOnly: 0
OS2_UseTypoMetrics: 1
CreationTime: 1460762150
ModificationTime: 1674050682
PfmFamily: 33
TTFWeight: 400
TTFWidth: 5
LineGap: 0
VLineGap: 0
OS2TypoAscent: 2500
OS2TypoAOffset: 0
OS2TypoDescent: -850
OS2TypoDOffset: 0
OS2TypoLinegap: 0
OS2WinAscent: 2500
OS2WinAOffset: 0
OS2WinDescent: 850
OS2WinDOffset: 0
HheadAscent: 2500
HheadAOffset: 0
HheadDescent: -850
HheadDOffset: 0
OS2CapHeight: 1500
OS2XHeight: 1040
OS2FamilyClass: 1024
OS2Vendor: 'it* '
OS2UnicodeRanges: 00000001.00000000.00000000.00000000
MarkAttachClasses: 1
DEI: 91125
LangName: 1033 "" "" "" "" "" "" "" "" "indestructible type*" "Owen Earl" "" "https://indestructibletype.com/Home.html" "https://ewonrael.github.io" "This Font Software is licensed under the SIL Open Font License, Version 1.1. This license is available with a FAQ at: https://scripts.sil.org/OFL" "http://scripts.sil.org/OFL" "" "MFEK Sans Rounded"
Encoding: UnicodeBmp
UnicodeInterp: none
NameList: AGL For New Fonts
DisplaySize: -72
AntiAlias: 1
FitToEm: 0
WinInfo: 32 16 4
BeginPrivate: 0
EndPrivate
Grid
-2000 -360 m 0
 4000 -360 l 1024
  Named: "decenders"
-2000 -35 m 0
 4000 -35 l 1024
  Named: "overflow"
-2000 1050 m 0
 4000 1050 l 1024
  Named: "x-height"
-2000 1400 m 0
 4000 1400 l 1024
  Named: "Captial Height"
EndSplineSet
TeXData: 1 0 0 314572 157286 104857 545260 1048576 104857 783286 444596 497025 792723 393216 433062 380633 303038 157286 324010 404750 52429 2506097 1059062 262144

StartChar: ampersand
Encoding: 38 38 0
Width: 1280
VWidth: 1920
Flags: HMW
LayerCount: 2
Fore
SplineSet
996 80 m 6
 558 734 l 2
 433.89681864 919.145803085 340 1030 340 1163 c 0
 340 1303.00195312 438 1435 645 1435 c 0
 832 1435 950 1353 960 1183 c 1
 960 1015 865.04296875 877.8203125 637 776 c 0
 383.354492188 662.748046875 236 592 236 448 c 0
 236 389.00390625 249.98828125 341.438476562 284.5 286 c 2
 330 212.909179688 l 2
 372.4921875 144.650390625 441.1953125 105 526.639648438 105 c 0
 718.238928583 105 885.849146524 324.307170772 982.131835938 570 c 0
 1009.6236508 640.153231242 1028.02246094 708 1075 708 c 2
 1080 708 l 2
 1137.03027344 708 1152.92907 640.287451992 1125.38769531 567 c 0
 992.240234375 212.6953125 798.814717401 -35 531.208984375 -35 c 0
 395.288085938 -35 263.368164062 21.1064453125 199 118.501953125 c 2
 146 198.696289062 l 2
 92.9755859375 278.927734375 66 351.583984375 66 448 c 0
 66 657 282 767 527 862 c 0
 687.7265625 924.322265625 825 1032 825 1163 c 0
 825 1243 762 1300 665 1300 c 0
 568 1300 510 1242.02636719 510 1153 c 0
 510 1034 580.549848857 972.534547929 647 876 c 2
 1163 127 l 2
 1214.39216286 52.4016860783 1197 -30 1140 -30 c 2
 1135 -30 l 6
 1078 -30 1046.85498268 4.06584777655 996 80 c 6
EndSplineSet
EndChar

StartChar: period
Encoding: 46 46 1
Width: 540
VWidth: 1920
Flags: HMW
LayerCount: 2
Fore
SplineSet
275 -30 m 6
 265 -30 l 6
 187.740758533 -30 135 32.7407585333 135 100 c 2
 135 110 l 2
 135 177.259241467 187.740758533 240 265 240 c 6
 275 240 l 6
 352.259241467 240 405 177.259241467 405 110 c 2
 405 100 l 2
 405 32.7407585333 352.259241467 -30 275 -30 c 6
EndSplineSet
EndChar

StartChar: zero
Encoding: 48 48 2
Width: 1150
VWidth: 1920
Flags: HMW
LayerCount: 2
Fore
SplineSet
100 488 m 258
 100 913 l 258
 100 1238.79492188 273.346679688 1435 575 1435 c 256
 876.653320312 1435 1050 1238.79492188 1050 913 c 258
 1050 488 l 258
 1050 161.891601562 876.377929688 -35 575 -35 c 256
 273.622070312 -35 100 161.891601562 100 488 c 258
290 508 m 258
 290 259.787109375 391.172851562 105 575 105 c 256
 758.827148438 105 860 259.787109375 860 508 c 258
 860 893 l 258
 860 1140.875 759.051757812 1295 575 1295 c 256
 390.948242188 1295 290 1140.875 290 893 c 258
 290 508 l 258
EndSplineSet
EndChar

StartChar: one
Encoding: 49 49 3
Width: 600
VWidth: 1920
Flags: HMW
LayerCount: 2
Fore
SplineSet
246 1373.24902344 m 4
 263.852539062 1386.11816406 279.655273438 1391.14160156 299.745117188 1415 c 4
 311.500976562 1428.9609375 325.3984375 1450 352 1450 c 6
 356 1450 l 6
 383 1450 395 1427 395 1400 c 6
 395 80 l 6
 395 3 352 -30 305 -30 c 6
 295 -30 l 6
 248 -30 205 3 205 80 c 6
 205 1284 l 6
 205 1340.734375 224.0078125 1357.39550781 246 1373.24902344 c 4
EndSplineSet
EndChar

StartChar: two
Encoding: 50 50 4
Width: 1080
VWidth: 1920
Flags: HMW
LayerCount: 2
Fore
SplineSet
100 160 m 262
 100 574.034179688 785 755.631835938 785 1033 c 262
 785 1078 l 262
 785 1188 706 1285 549 1285 c 260
 379 1285 285 1174.57601869 285 1002 c 262
 285 982 l 6
 285 905 247 872 200 872 c 6
 190 872 l 6
 143 872 105 905 105 982 c 6
 105 1002 l 262
 105 1275.74114594 282 1435 559 1435 c 260
 806 1435 965 1303 965 1073 c 262
 965 1028 l 262
 965 632.094726562 290 501 290 180 c 262
 290 170 l 261
 890 170 l 6
 967 170 1000 137 1000 90 c 6
 1000 80 l 6
 1000 33 967 0 890 0 c 6
 280 0 l 6
 153 0 100 48 100 155 c 6
 100 160 l 262
EndSplineSet
EndChar

StartChar: three
Encoding: 51 51 5
Width: 1100
VWidth: 1920
Flags: HMW
LayerCount: 2
Fore
SplineSet
170 437 m 6
 180 437 l 6
 227 437 270 414 270 337 c 6
 270 327 l 6
 270 207.036515383 381 115 540 115 c 4
 707 115 825 222 825 352 c 6
 825 447 l 6
 825 577 706.918702172 660 530 660 c 6
 510 660 l 6
 443 660 410 683 410 730 c 6
 410 740 l 6
 410 787 442 810 509 810 c 6
 510 810 l 6
 676.886089058 810 770 903 770 1023 c 6
 770 1088 l 6
 770 1198 706 1285 539 1285 c 4
 389 1285 295 1184.8148849 295 1052 c 6
 295 1032 l 6
 295 955 257 922 210 922 c 6
 200 922 l 6
 153 922 115 955 115 1032 c 6
 115 1052 l 6
 115 1286 297 1435 544 1435 c 4
 791 1435 965 1313 965 1083 c 6
 965 1058 l 6
 965 808 767 720 510 720 c 5
 530 770 l 5
 787 770 1015 672 1015 422 c 6
 1015 347 l 6
 1015 107 827 -35 530 -35 c 4
 278 -35 80 99 80 327 c 6
 80 337 l 6
 80 414 123 437 170 437 c 6
EndSplineSet
EndChar

StartChar: four
Encoding: 52 52 6
Width: 1045
VWidth: 1920
Flags: HMW
LayerCount: 2
Fore
SplineSet
1040 410 m 6
 1040 400 l 6
 1040 353 1007 330 930 330 c 6
 820 330 l 261
 820 80 l 6
 820 3 777 -30 730 -30 c 6
 720 -30 l 6
 673 -30 630 3 630 80 c 6
 630 330 l 261
 130 330 l 6
 53 330 20 363 20 410 c 6
 20 412 l 6
 20 449 41.1832276125 485.887528317 87 550 c 6
 678 1377 l 6
 700.516896463 1408.43663323 722.5078125 1420 750 1420 c 6
 760 1420 l 6
 797 1420 820 1387 820 1340 c 6
 820 480 l 261
 930 480 l 6
 1007 480 1040 457 1040 410 c 6
640 480 m 261
 640 1080.83300781 l 261
 205 480 l 261
 640 480 l 261
  Spiro
    640 480 v
    640 1080.83 v
    205 480 v
    0 0 z
  EndSpiro
EndSplineSet
EndChar

StartChar: five
Encoding: 53 53 7
Width: 1100
VWidth: 1920
Flags: HMW
LayerCount: 2
Fore
SplineSet
180 398 m 6
 190 398 l 6
 246.907226562 398 265.235695516 360.653768972 290.643554688 289 c 4
 321.698152526 201.42162655 387.780728992 105 535 105 c 4
 684 105 810 205 810 398 c 6
 810 523 l 6
 810 723 699 805 565 805 c 4
 478.910310807 805 388.326469579 760.249341998 346 692.57421875 c 4
 313.714096445 640.952797829 291.759765625 623 235 623 c 6
 225 623 l 6
 168 623 130.298907375 666.481012702 142 743 c 6
 218 1240 l 6
 236.723446318 1364.17733937 274 1400 401 1400 c 6
 861 1400 l 6
 928 1400 961 1387 961 1350 c 6
 961 1345 l 6
 961 1275 891 1250 741 1250 c 6
 386 1250 l 5
 292.328125 745.357421875 l 5
 269.328125 745.357421875 l 5
 323.97265625 868.810546875 449.609099591 955 610 955 c 4
 810 955 1000 790 1000 493 c 6
 1000 428 l 6
 1000 131 805 -35 535 -35 c 4
 301.010559942 -35 151.969403717 100.523819337 120.536132812 288 c 4
 107.801002436 363.955620735 142.916992188 398 180 398 c 6
EndSplineSet
EndChar

StartChar: six
Encoding: 54 54 8
Width: 1229
VWidth: 1920
Flags: HMW
LayerCount: 2
Fore
SplineSet
630 740 m 260
 480 740 310 675 310 492 c 262
 310 422 l 261
 250 522 l 261
 250 786 463 890 670 890 c 260
 927 890 1119 731 1119 457 c 262
 1119 407 l 262
 1119 129 921 -35 629 -35 c 260
 252 -35 125 167 125 527 c 262
 125 843 l 262
 125 1223 293 1435 620 1435 c 260
 927 1435 1059 1267.83496094 1059 1124 c 262
 1059 1122 l 6
 1059 1045 1021 1012 974 1012 c 6
 964 1012 l 6
 917 1012 889 1045 889 1102 c 6
 889 1114 l 262
 889 1196.91113281 810 1285 640 1285 c 260
 413 1285 310 1138 310 838 c 262
 310 422 l 262
 310 232 432 115 619 115 c 260
 818 115 929 237 929 417 c 262
 929 457 l 262
 929 640 820 740 630 740 c 260
EndSplineSet
EndChar

StartChar: seven
Encoding: 55 55 9
Width: 1015
VWidth: 1920
Flags: HMW
LayerCount: 2
Fore
SplineSet
957 1260 m 6
 469 80 l 6
 441.222271332 12.8325413367 397.49609375 -30 350 -30 c 6
 340 -30 l 6
 283 -30 237.185546875 28.5126953125 274 110 c 6
 785 1240 l 261
 155 1240 l 6
 78 1240 45 1263 45 1310 c 6
 45 1330 l 6
 45 1377 78 1400 155 1400 c 6
 855 1400 l 6
 962.372070312 1400 994.985351562 1351.85058594 957 1260 c 6
EndSplineSet
EndChar

StartChar: eight
Encoding: 56 56 10
Width: 1182
VWidth: 1920
Flags: HMW
LayerCount: 2
Fore
SplineSet
591 110 m 260
 770.859323272 110 877 196.100129374 877 342 c 262
 877 427 l 262
 877 574.159239402 771.689270782 659.927734375 591 659.927734375 c 260
 410.310729218 659.927734375 305 574.159239402 305 427 c 262
 305 342 l 262
 305 196.100129374 411.140676728 110 591 110 c 260
591 810 m 260
 741.429032212 810 827 887.231424317 827 1023 c 262
 827 1088 l 262
 827 1214.95949632 739.328916495 1290 591 1290 c 260
 442.671083505 1290 355 1214.95949632 355 1088 c 262
 355 1023 l 262
 355 887.231424317 440.570967788 810 591 810 c 260
622 760 m 261
 902.075490238 760 1067 623.61298968 1067 392 c 262
 1067 347 l 262
 1067 99.7502688302 899.091288054 -35 591 -35 c 260
 282.908711946 -35 115 99.7502688302 115 347 c 262
 115 392 l 262
 115 623.61298968 279.924509762 760 560 760 c 261
 562 720.282226562 l 261
 295.816444076 725.766068556 165 837.048280703 165 1058 c 262
 165 1083 l 262
 165 1304.25899984 323.226324062 1435 591 1435 c 260
 858.773675938 1435 1017 1304.25899984 1017 1083 c 262
 1017 1058 l 262
 1017 837.048280703 886.183555924 725.766068556 620 720.282226562 c 261
 622 760 l 261
EndSplineSet
EndChar

StartChar: nine
Encoding: 57 57 11
Width: 1169
VWidth: 1920
Flags: HMW
LayerCount: 2
Fore
SplineSet
569 660 m 260
 719 660 859 755 859 948 c 262
 859 1018 l 261
 919 918 l 261
 919 644 736 510 529 510 c 260
 292 510 110 669 110 943 c 262
 110 993 l 262
 110 1271 298 1435 570 1435 c 260
 927 1435 1044 1243 1044 913 c 262
 1044 557 l 262
 1044 177 866 -35 560 -35 c 260
 253 -35 121 132.165039062 121 276 c 262
 121 278 l 6
 121 355 159 388 206 388 c 6
 216 388 l 6
 263 388 291 355 291 298 c 6
 291 286 l 262
 291 203.088867188 370 115 540 115 c 260
 746 115 859 262 859 562 c 262
 859 1018 l 262
 859 1168 747 1285 580 1285 c 260
 401 1285 300 1163 300 983 c 262
 300 943 l 262
 300 760 399 660 569 660 c 260
EndSplineSet
EndChar

StartChar: A
Encoding: 65 65 12
Width: 1280
VWidth: 1920
Flags: HMW
LayerCount: 2
Fore
SplineSet
310 570 m 257
 940 570 l 257
 940 420 l 257
 310 420 l 257
 310 570 l 257
624.30859375 1226.3828125 m 261
 253 95 l 262
 229.297391828 22.7778000602 203 -35 143 -35 c 262
 133 -35 l 262
 63 -35 48.2557545238 23.5763928888 73 95 c 262
 487 1290 l 262
 511.75480563 1361.41973262 540 1400 630 1400 c 262
 640 1400 l 262
 730 1400 757.77386236 1361.04258333 783 1290 c 262
 1207 95 l 262
 1232.20907868 23.9508277848 1205 -35 1135 -35 c 262
 1125 -35 l 262
 1065 -35 1031.28159248 23.2142845419 1007 95 c 262
 624.30859375 1226.3828125 l 261
EndSplineSet
EndChar

StartChar: B
Encoding: 66 66 13
Width: 1280
VWidth: 1920
Flags: HMW
LayerCount: 2
Fore
SplineSet
360 790 m 257
 690 790 l 262
 856.809411784 790 945 863 945 983 c 258
 945 1068 l 258
 945 1188 856.993036662 1250 690 1250 c 258
 360 1250 l 257
 360 790 l 257
710 750 m 257
 967 750 1195 652 1195 402 c 258
 1195 347 l 258
 1195 67 966.995593524 -3.14728831004e-14 710 0 c 258
 330 0 l 258
 223 0 170 53 170 160 c 258
 170 1240 l 258
 170 1347 223 1400 330 1400 c 258
 690 1400 l 258
 946.904990758 1400 1145 1313 1145 1063 c 258
 1145 1038 l 258
 1145 788 947 700 690 700 c 257
 710 750 l 257
710 640 m 258
 360 640 l 257
 360 150 l 257
 710 150 l 258
 886.808199852 150 995 222 995 342 c 258
 995 437 l 258
 995 557 886.913284355 640 710 640 c 258
EndSplineSet
EndChar

StartChar: C
Encoding: 67 67 14
Width: 1385
VWidth: 1920
Flags: HMW
LayerCount: 2
Fore
SplineSet
1260 418 m 256
 1206.65429688 165.411132812 1032 -35 695 -35 c 256
 308 -35 100 238 100 618 c 258
 100 783 l 258
 100 1163 308 1435 695 1435 c 256
 1022 1435 1178.8515625 1265.46582031 1230 1063 c 256
 1246.82226562 996.409179688 1207 943 1160 943 c 258
 1150 943 l 258
 1093 943 1077.41894531 997.04296875 1058 1063 c 256
 1018.03125 1198.75585938 882 1295 705 1295 c 256
 448 1295 300 1063 300 793 c 258
 300 608 l 258
 300 338 428 105 705 105 c 256
 922 105 1050.421875 235.4375 1090 418 c 256
 1102.4296875 475.336914062 1123 528 1180 528 c 258
 1190 528 l 258
 1247 528 1272.14257812 475.493164062 1260 418 c 256
EndSplineSet
EndChar

StartChar: D
Encoding: 68 68 15
Width: 1450
VWidth: 1920
Flags: HMW
LayerCount: 2
Fore
SplineSet
705 0 m 258
 330 0 l 258
 223 0 170 63 170 160 c 258
 170 1240 l 258
 170 1347 223 1400 330 1400 c 258
 705 1400 l 258
 1018.99854155 1400 1280 1168.79492188 1280 783 c 258
 1280 618 l 258
 1280 231.891601562 1059.19954713 -4.33769341658e-14 705 0 c 258
665 150 m 258
 919.389464401 150 1080 309.787109375 1080 608 c 258
 1080 793 l 258
 1080 1090.875 919.003861852 1250 665 1250 c 258
 360 1250 l 257
 360 150 l 257
 665 150 l 258
EndSplineSet
EndChar

StartChar: E
Encoding: 69 69 16
Width: 1280
VWidth: 1920
Flags: HMW
LayerCount: 2
Fore
SplineSet
360 790 m 257
 850 790 l 258
 917 790 940 767 940 720 c 258
 940 710 l 258
 940 663 917 640 850 640 c 258
 360 640 l 257
 360 150 l 257
 1120 150 l 258
 1187 150 1210 127 1210 80 c 258
 1210 70 l 258
 1210 23 1187 0 1120 0 c 258
 330 0 l 258
 223 0 170 53 170 160 c 258
 170 1240 l 258
 170 1347 223 1400 330 1400 c 258
 1100 1400 l 258
 1167 1400 1190 1377 1190 1330 c 258
 1190 1320 l 258
 1190 1273 1166.99902344 1250 1100 1250 c 258
 360 1250 l 257
 360 790 l 257
EndSplineSet
EndChar

StartChar: F
Encoding: 70 70 17
Width: 1170
VWidth: 1920
Flags: HMW
LayerCount: 2
Fore
SplineSet
360 790 m 257
 770 790 l 258
 818.518554688 790 850 768.595703125 850 720 c 258
 850 710 l 258
 850 661.479492188 818.595703125 640 770 640 c 258
 360 640 l 257
 360 90 l 258
 360 11.4794921875 328.595703125 -30 270 -30 c 258
 260 -30 l 258
 201.479492188 -30 170 11.404296875 170 90 c 258
 170 1240 l 258
 170 1347 223 1400 330 1400 c 258
 1060 1400 l 258
 1107 1400 1140 1377 1140 1330 c 258
 1140 1320 l 258
 1140 1273 1106.99902344 1250 1060 1250 c 258
 360 1250 l 257
 360 790 l 257
EndSplineSet
EndChar

StartChar: G
Encoding: 71 71 18
Width: 1385
VWidth: 1920
Flags: HMW
LayerCount: 2
Fore
SplineSet
1068 590 m 0
 1071.11910188 648.572475207 1108 690 1165 690 c 2
 1175 690 l 2
 1232 690 1270 647 1270 590 c 2
 1270 40 l 2
 1270 -7 1257 -30 1220 -30 c 2
 1219 -30 l 6
 1182 -30 1162.31860548 -4.63675400133 1151 40 c 2
 1080 320 l 1
 1170 620 l 1
 1150 230 1002 -35 675 -35 c 0
 298 -35 100 238 100 618 c 2
 100 783 l 2
 100 1163 308 1435 695 1435 c 0
 1062 1435 1205.89423436 1223.14127474 1235 1013 c 0
 1242.65896766 957.702872714 1217 923 1167 923 c 2
 1157 923 l 2
 1111 923 1084.97697038 955.138444958 1075 1013 c 0
 1047.30503916 1173.61724553 922 1295 705 1295 c 0
 448 1295 300 1063 300 793 c 2
 300 608 l 2
 300 338 438 105 715 105 c 0
 952 105 1055.90554476 362.882641877 1068 590 c 0
EndSplineSet
EndChar

StartChar: H
Encoding: 72 72 19
Width: 1380
VWidth: 1920
Flags: HMW
LayerCount: 2
Fore
SplineSet
1130 1430 m 2
 1140 1430 l 2
 1197 1430 1230 1387 1230 1320 c 2
 1230 80 l 2
 1230 13 1197 -30 1140 -30 c 2
 1130 -30 l 2
 1073 -30 1040 13 1040 80 c 2
 1040 640 l 257
 340 640 l 257
 340 80 l 2
 340 13 307 -30 250 -30 c 2
 240 -30 l 2
 183 -30 150 13 150 80 c 6
 150 1320 l 18
 150 1387 183 1430 240 1430 c 10
 250 1430 l 18
 307 1430 340 1387 340 1320 c 10
 340 790 l 257
 1040 790 l 257
 1040 1320 l 2
 1040 1387 1073 1430 1130 1430 c 2
EndSplineSet
EndChar

StartChar: I
Encoding: 73 73 20
Width: 550
VWidth: 1920
Flags: HMW
LayerCount: 2
Fore
SplineSet
270 1430 m 14
 280 1430 l 22
 327 1430 370 1397 370 1320 c 14
 370 80 l 22
 370 3 327 -30 280 -30 c 14
 270 -30 l 22
 223 -30 180 3 180 80 c 14
 180 1320 l 22
 180 1397 223 1430 270 1430 c 14
EndSplineSet
EndChar

StartChar: J
Encoding: 74 74 21
Width: 1161
VWidth: 1920
Flags: HMW
LayerCount: 2
Fore
SplineSet
898 1430 m 2
 908 1430 l 2
 955 1430 1003 1397 1003 1320 c 2
 1003 538 l 258
 1003 152.475712574 853.649414062 -35 508.575195312 -35 c 256
 212.5703125 -35 53 154.524604158 53 478 c 258
 53 583 l 6
 53 660 96 693 133 693 c 2
 143 693 l 2
 180 693 223 660 223 583 c 6
 223 488 l 258
 223 256.828125 322.043945312 125 495.811523438 125 c 256
 700.5859375 125 803 248.626953125 803 508 c 258
 803 1320 l 2
 803 1397 851 1430 898 1430 c 2
EndSplineSet
EndChar

StartChar: K
Encoding: 75 75 22
Width: 1280
VWidth: 1920
Flags: HMW
LayerCount: 2
Fore
SplineSet
240 1430 m 10
 250 1430 l 18
 297 1430 340 1397 340 1320 c 10
 340 80 l 18
 340 3 297 -30 250 -30 c 10
 240 -30 l 18
 193 -30 150 3 150 80 c 10
 150 1320 l 18
 150 1397 193 1430 240 1430 c 10
480 820 m 257
 670 850 l 257
 1178 116 l 258
 1230.63620184 39.9469052129 1207 -30 1130 -30 c 2
 1120 -30 l 2
 1083 -30 1039.4333843 1.0575933253 1006 50 c 258
 480 820 l 257
1010 1370 m 258
 1049.98677523 1410.48660992 1075 1430 1110 1430 c 2
 1114 1430 l 2
 1177 1430 1207.15346564 1356.38158672 1140 1290 c 258
 270 430 l 257
 210 560 l 257
 1010 1370 l 258
EndSplineSet
EndChar

StartChar: L
Encoding: 76 76 23
Width: 1067
VWidth: 1920
Flags: HMW
LayerCount: 2
Fore
SplineSet
240 1430 m 2
 250 1430 l 2
 297 1430 340 1397 340 1310 c 2
 340 150 l 281
 930 150 l 6
 1007 150 1030 117 1030 80 c 2
 1030 70 l 2
 1030 33 1007 0 930 0 c 6
 280 0 l 2
 193 0 150 43 150 130 c 2
 150 1310 l 2
 150 1397 193 1430 240 1430 c 2
EndSplineSet
EndChar

StartChar: M
Encoding: 77 77 24
Width: 1600
VWidth: 1920
Flags: HMW
LayerCount: 2
Fore
SplineSet
300 1220.40816327 m 257
 300 90 l 2
 300 13 277 -30 230 -30 c 2
 220 -30 l 2
 173 -30 150 13 150 90 c 2
 150 1300 l 2
 150 1367 203 1410 260 1410 c 6
 320 1410 l 2
 387 1410 414.641488608 1387.37841699 444 1310 c 2
 820 319 l 257
 1179 1290 l 2
 1217.41621167 1393.90568672 1252.50390625 1415 1320 1415 c 2
 1330 1415 l 2
 1417 1415 1450 1367 1450 1310 c 2
 1450 80 l 2
 1450 13 1417 -30 1370 -30 c 2
 1360 -30 l 2
 1313 -30 1280 13 1280 80 c 2
 1280 1167.34693878 l 257
 864 60 l 2
 848.159273472 17.8337018526 819.49609375 9 802 9 c 2
 800 9 l 2
 785.571289062 9 751.842456238 17.8355148047 736 60 c 2
 300 1220.40816327 l 257
EndSplineSet
EndChar

StartChar: N
Encoding: 78 78 25
Width: 1380
VWidth: 1920
Flags: HMW
LayerCount: 2
Fore
SplineSet
1140 1430 m 2
 1150 1430 l 2
 1197 1430 1230 1397 1230 1340 c 2
 1230 30 l 2
 1230 -17 1207 -30 1185 -30 c 2
 1181 -30 l 2
 1144 -30 1122.01188383 -1.67632439734 1093 40 c 2
 320 1150.43457031 l 257
 320 80 l 2
 320 13 287 -30 240 -30 c 2
 230 -30 l 2
 183 -30 150 13 150 80 c 2
 150 1300 l 6
 150 1377 203 1420 260 1420 c 2
 270 1420 l 2
 323 1420 374.807697511 1378.1744422 423 1310 c 2
 1060 408.878504673 l 257
 1060 1340 l 2
 1060 1397 1093 1430 1140 1430 c 2
EndSplineSet
EndChar

StartChar: O
Encoding: 79 79 26
Width: 1490
VWidth: 1920
Flags: HMW
LayerCount: 2
Fore
SplineSet
100 618 m 262
 100 783 l 262
 100 1168.79512682 363.346845401 1435 745 1435 c 260
 1126.6531546 1435 1390 1168.79512682 1390 783 c 262
 1390 618 l 262
 1390 231.891434913 1126.3782917 -35 745 -35 c 260
 363.621708298 -35 100 231.891434913 100 618 c 262
300 608 m 262
 300 309.786901998 481.17330296 105 745 105 c 260
 1008.82669704 105 1190 309.786901998 1190 608 c 262
 1190 793 l 262
 1190 1090.87452593 1009.0521196 1295 745 1295 c 260
 480.947880401 1295 300 1090.87452593 300 793 c 262
 300 608 l 262
EndSplineSet
EndChar

StartChar: P
Encoding: 80 80 27
Width: 1280
VWidth: 1920
Flags: HMW
LayerCount: 2
Fore
SplineSet
360 1250 m 257
 360 750 l 257
 700 750 l 258
 867 750 975 818 975 938 c 258
 975 1062 l 258
 975 1182 867 1250 700 1250 c 258
 360 1250 l 257
700 1400 m 258
 986.879430823 1400 1175 1302 1175 1032 c 258
 1175 968 l 258
 1175 698 987 600 700 600 c 258
 360 600 l 257
 360 80 l 2
 360 13 317 -30 270 -30 c 2
 260 -30 l 2
 213 -30 170 13 170 80 c 2
 170 1260 l 2
 170 1347 223 1400 310 1400 c 2
 700 1400 l 258
EndSplineSet
EndChar

StartChar: Q
Encoding: 81 81 28
Width: 1600
VWidth: 1920
Flags: HMW
LayerCount: 2
Fore
SplineSet
1565 66 m 2
 1565 60 l 6
 1565 22.8271484375 1548.37489173 5.40393228076 1513.53388983 -3.00000145609 c 0
 1300.87181128 -54.2958287615 1190 92.794414002 1190 358 c 257
 1300 588 l 257
 1300 238 1152 -35 725 -35 c 256
 278 -35 140 238 140 588 c 258
 140 813 l 258
 140 1163 288 1435 745 1435 c 256
 1202 1435 1350 1163 1350 813 c 258
 1350 328 l 258
 1350 184.238580001 1421.53710938 124.642578125 1503 120.303710938 c 0
 1544.94475527 118.069654167 1565 97.6884765625 1565 66 c 2
1150 558 m 258
 1150 843 l 258
 1150 1113 1022 1295 745 1295 c 256
 468 1295 340 1113 340 843 c 258
 340 558 l 258
 340 288 468 105 745 105 c 256
 1022 105 1150 288 1150 558 c 258
EndSplineSet
EndChar

StartChar: R
Encoding: 82 82 29
Width: 1380
VWidth: 1920
Flags: HMW
LayerCount: 2
Fore
SplineSet
360 1250 m 257
 360 790 l 257
 760 790 l 258
 927 790 1015 858 1015 978 c 258
 1015 1062 l 258
 1015 1182 927 1250 760 1250 c 258
 360 1250 l 257
760 1400 m 258
 1016.99681367 1400 1215 1282 1215 1042 c 258
 1215 1018 l 258
 1215 778 1017 680 760 680 c 257
 760 740 l 257
 1017 740 1205 662 1205 422 c 258
 1205 328 l 258
 1205 214.202180376 1231.1008676 149.5307528 1263.37011719 91 c 0
 1277.09486954 66.105709062 1283 45.6650390625 1283 33 c 2
 1283 28 l 2
 1283 -8 1247 -30 1200 -30 c 2
 1190 -30 l 6
 1137.82910156 -30 1094.89980622 0.516491258061 1074.77734375 39 c 4
 1028.15527344 128.163085938 1015 240.670560611 1015 328 c 258
 1015 452 l 258
 1015 572 927 640 760 640 c 258
 360 640 l 257
 360 90 l 2
 360 13 327 -30 270 -30 c 2
 260 -30 l 2
 203 -30 170 13 170 90 c 2
 170 1240 l 2
 170 1347 223 1400 330 1400 c 2
 760 1400 l 258
EndSplineSet
EndChar

StartChar: S
Encoding: 83 83 30
Width: 1280
VWidth: 1920
Flags: HMW
LayerCount: 2
Fore
SplineSet
170 538 m 2
 180 538 l 6
 216.947265625 538 257.070424685 506.857469592 270.37890625 430 c 0
 301.712303328 249.047304434 426.092776811 115 660.08984375 115 c 256
 868.124023438 115 1010 186.604492188 1010 358 c 256
 1010 521.729492188 829.109375 575.2265625 628 614.35546875 c 256
 325.51953125 673.208007812 140 794.966796875 140 1043 c 256
 140 1273 318 1435 625 1435 c 256
 939.171431602 1435 1102.14941406 1266.33984375 1132.68945312 1041 c 0
 1141.82208224 973.614846556 1113.04394531 933 1066 933 c 2
 1056 933 l 2
 999.072265625 933 976.444530637 974.357288525 962.927734375 1041 c 0
 933.4921875 1186.12792969 819.612609459 1295 635 1295 c 256
 448 1295 320 1223 320 1063 c 256
 320 911.723632812 478.866790398 826.040278731 647.999994079 792.261600569 c 256
 1023.14589291 717.338804189 1200 616.510742188 1200 388 c 256
 1200 120.7265625 1039.34179688 -35 650.27734375 -35 c 256
 345.321823162 -35 135.470810195 127.582604749 100.514648438 429 c 0
 91.4202610542 507.418408047 132.958984375 538 170 538 c 2
EndSplineSet
EndChar

StartChar: T
Encoding: 84 84 31
Width: 1170
VWidth: 1920
Flags: HMW
LayerCount: 2
Fore
SplineSet
110 1400 m 6
 1060 1400 l 2
 1137 1400 1160 1367 1160 1330 c 2
 1160 1320 l 2
 1160 1283 1137 1250 1060 1250 c 2
 680 1250 l 257
 680 80 l 2
 680 3 637 -30 590 -30 c 2
 580 -30 l 2
 533 -30 490 3 490 80 c 2
 490 1250 l 257
 110 1250 l 6
 33 1250 10 1283 10 1320 c 2
 10 1330 l 2
 10 1367 33 1400 110 1400 c 6
EndSplineSet
EndChar

StartChar: U
Encoding: 85 85 32
Width: 1390
VWidth: 1920
Flags: HMW
LayerCount: 2
Fore
SplineSet
1055 488 m 258
 1055 1320 l 2
 1055 1397 1092 1430 1139 1430 c 2
 1141 1430 l 2
 1188 1430 1225 1397 1225 1320 c 2
 1225 498 l 258
 1225 178.043756138 1097 -35 700 -35 c 256
 243 -35 165 208.009967088 165 588 c 258
 165 1320 l 2
 165 1397 213 1430 260 1430 c 2
 270 1430 l 2
 317 1430 365 1397 365 1320 c 2
 365 558 l 258
 365 258.067794141 433 105 700 105 c 256
 927 105 1055 228.011928147 1055 488 c 258
EndSplineSet
EndChar

StartChar: V
Encoding: 86 86 33
Width: 1280
VWidth: 1920
Flags: HMW
LayerCount: 2
Fore
SplineSet
655.69140625 173.6171875 m 257
 1027 1305 l 258
 1050.70214844 1377.22265625 1077 1435 1137 1435 c 258
 1147 1435 l 258
 1217 1435 1231.74414062 1376.42382812 1207 1305 c 258
 793 110 l 258
 768.245117188 38.580078125 740 0 650 0 c 258
 640 0 l 258
 550 0 522.2265625 38.95703125 497 110 c 258
 73 1305 l 258
 47.791015625 1376.04882812 75 1435 145 1435 c 258
 155 1435 l 258
 215 1435 248.71875 1376.78613281 273 1305 c 258
 655.69140625 173.6171875 l 257
EndSplineSet
EndChar

StartChar: W
Encoding: 87 87 34
Width: 1810
VWidth: 1920
Flags: HMW
LayerCount: 2
Fore
SplineSet
529.931640625 210.13671875 m 257
 861 1370 l 2
 873.404502663 1413.45787434 898 1430 925 1430 c 2
 935 1430 l 2
 972 1430 991.164964955 1395.14407506 998 1370 c 2
 1317.70800781 193.888671875 l 257
 1589 1320 l 2
 1608.80919956 1402.2264006 1643 1430 1690 1430 c 2
 1695 1430 l 2
 1742 1430 1788.79544244 1391.18646181 1767 1310 c 2
 1437 80 l 2
 1417.59433962 7.66981132075 1382.02832031 -30 1325 -30 c 2
 1285 -30 l 6
 1228.03417969 -30 1192.41966451 7.39133554061 1173 80 c 2
 913.301757812 1050.9921875 l 257
 647 80 l 6
 629.770388833 17.1772158986 582.028320312 -30 535 -30 c 6
 500 -30 l 6
 453 -30 408.058539523 6.97195135886 389 80 c 6
 68 1310 l 2
 49.1988596541 1382.09876829 108 1430 155 1430 c 2
 160 1430 l 2
 217 1430 245.352067529 1382.71641859 263 1310 c 2
 529.931640625 210.13671875 l 257
EndSplineSet
EndChar

StartChar: X
Encoding: 88 88 35
Width: 1280
VWidth: 1920
Flags: HMW
LayerCount: 2
Fore
SplineSet
1077 1430 m 2
 1082 1430 l 2
 1133 1430 1177.60157918 1366.53162893 1112 1270 c 2
 741.688476562 725.092773438 l 257
 1143 130 l 6
 1194.63602916 53.4304872738 1177 -30 1100 -30 c 6
 1095 -30 l 2
 1048 -30 1005.05230771 8.96815965707 959 80 c 2
 639.657226562 572.559570312 l 257
 300 80 l 2
 247.593050042 4.00119080712 212 -30 165 -30 c 2
 160 -30 l 2
 113 -30 69.34386028 27.0943494154 122 102 c 2
 548.865234375 709.234375 l 257
 168 1271 l 2
 106.960159196 1361.03206705 163 1430 220 1430 c 2
 225 1430 l 2
 268 1430 301.247402166 1397.80757237 352 1320 c 2
 650.897460938 861.767578125 l 257
 965 1340 l 2
 997.853079017 1390.01999535 1030 1430 1077 1430 c 2
EndSplineSet
EndChar

StartChar: Y
Encoding: 89 89 36
Width: 1280
VWidth: 1920
Flags: HMW
LayerCount: 2
Fore
SplineSet
1130 1430 m 2
 1135 1430 l 2
 1202 1430 1222.61370609 1371.58108029 1192 1320 c 6
 735 550 l 257
 735 90 l 2
 735 13 692 -30 645 -30 c 2
 635 -30 l 2
 588 -30 545 13 545 90 c 2
 545 550 l 257
 92 1312 l 2
 59.2232420063 1367.13441411 103 1430 160 1430 c 2
 165 1430 l 2
 202.05859375 1430 244.287012165 1401.73510927 275 1350 c 2
 655 709.901367188 l 257
 1035 1350 l 2
 1070.10255567 1409.12920498 1098.890625 1430 1130 1430 c 2
EndSplineSet
EndChar

StartChar: Z
Encoding: 90 90 37
Width: 1170
VWidth: 1920
Flags: HMW
LayerCount: 2
Fore
SplineSet
62 130 m 2
 856.071289062 1250 l 257
 160 1250 l 2
 113 1250 80 1273 80 1320 c 2
 80 1330 l 2
 80 1377 113 1400 160 1400 c 2
 1020 1400 l 6
 1107 1400 1106.69365596 1324.30477492 1054 1250 c 2
 273.928710938 150 l 257
 1040 150 l 2
 1097 150 1130 127 1130 80 c 2
 1130 70 l 2
 1130 23 1097 -6.98048675514e-15 1040 0 c 2
 110 0 l 2
 33 0 17.4120487547 67.110803422 62 130 c 2
EndSplineSet
EndChar

StartChar: a
Encoding: 97 97 38
Width: 1110
VWidth: 1920
Flags: HMW
LayerCount: 2
Fore
SplineSet
265 270 m 0
 265 176.396484375 312.181787539 95 460 95 c 256
 624 95 778 222 778 398 c 257
 838 328 l 257
 838 125 647 -35 406 -35 c 256
 216.736122687 -35 70 45.109375 70 280 c 0
 70 441.0078125 168.559645712 575.213334063 529 615 c 256
 713.191803706 635.331734988 778 655 778 738 c 257
 818 618 l 257
 818 555 726.447199786 524.015663328 556 500 c 256
 331.513547388 468.370316002 265 380.081054688 265 270 c 0
778 208 m 258
 778 788 l 258
 778 888 694 955 559 955 c 256
 410.254022283 955 337.607421875 865.297851562 317.135742188 782 c 0
 301.383436194 717.904954235 274.86328125 683 228 683 c 2
 218 683 l 2
 170.93359375 683 134.053740557 717.415936202 147.853515625 782 c 0
 185.030273438 955.990234375 312.381634987 1085 578 1085 c 256
 838 1085 958 971 958 733 c 258
 958 208 l 258
 958 133.612259255 970.341271738 90.6857432769 985.41796875 57 c 0
 1018.02702085 -15.8581436978 965.610351562 -30 919 -30 c 2
 915 -30 l 2
 871.68359375 -30 825.732082887 -8.63237194219 802.336914062 56 c 0
 789.783741289 90.6798665072 778 112.835920156 778 208 c 258
EndSplineSet
EndChar

StartChar: b
Encoding: 98 98 39
Width: 1110
VWidth: 1920
Flags: HMW
LayerCount: 2
Fore
SplineSet
185 1480 m 6
 195 1480 l 6
 242 1480 285 1447 285 1380 c 6
 285 185 l 261
 228 65 l 6
 199.778320312 5.5869140625 172 -25 145 -25 c 6
 144 -25 l 6
 117 -25 95 -12 95 35 c 6
 95 1380 l 6
 95 1447 138 1480 185 1480 c 6
215 633 m 261
 215 923 402 1085 599 1085 c 260
 806 1085 1035 943 1035 603 c 262
 1035 447 l 262
 1035 127 816 -35 609 -35 c 260
 382 -35 185 127 185 417 c 261
 285 437 l 261
 285 227 402 105 559 105 c 260
 706 105 845 207 845 417 c 262
 845 633 l 262
 845 843 706 945 559 945 c 260
 402 945 285 823 285 613 c 261
 215 633 l 261
EndSplineSet
EndChar

StartChar: c
Encoding: 99 99 40
Width: 1000
VWidth: 1920
Flags: HMW
LayerCount: 2
Fore
SplineSet
946.587890625 310 m 0
 905.59375 101.034179688 764.494934679 -35 530 -35 c 256
 250 -35 65 151 65 448 c 258
 65 603 l 258
 65 900 245 1085 525 1085 c 256
 774.571419211 1085 908.715820312 942.580078125 937.641601562 741 c 0
 948.296087991 666.750243765 918.041992188 633 871 633 c 2
 866 633 l 2
 809.041992188 633 788.415150287 667.284597626 774.58984375 740 c 0
 752.943547161 853.850579887 677.034834056 945 520 945 c 256
 366 945 255 833 255 633 c 258
 255 418 l 258
 255 225 376 105 535 105 c 256
 671.831259297 105 753.899649916 182.487120781 784.548828125 311 c 0
 801.720596963 383.001716965 823.046875 418 870 418 c 2
 880 418 l 2
 927.048828125 418 961.028320312 383.610351562 946.587890625 310 c 0
EndSplineSet
EndChar

StartChar: d
Encoding: 100 100 41
Width: 1110
VWidth: 1920
Flags: HMW
LayerCount: 2
Fore
SplineSet
895 417 m 257
 895 127 706 -35 509 -35 c 256
 302 -35 75 107 75 447 c 258
 75 603 l 258
 75 943 302 1085 509 1085 c 256
 706 1085 895 923 895 633 c 257
 825 613 l 257
 825 823 706 945 549 945 c 256
 402 945 265 843 265 633 c 258
 265 417 l 258
 265 207 402 105 549 105 c 256
 706 105 825 227 825 437 c 257
 895 417 l 257
1015 1370 m 2
 1015 80 l 2
 1015 13 977 -30 930 -30 c 2
 925 -30 l 2
 878 -30 840 13 840 80 c 2
 840 220 l 257
 825 252 l 257
 825 1370 l 2
 825 1437 868 1480 915 1480 c 2
 925 1480 l 2
 972 1480 1015 1437 1015 1370 c 2
EndSplineSet
EndChar

StartChar: e
Encoding: 101 101 42
Width: 1110
VWidth: 1920
Flags: HMW
LayerCount: 2
Fore
SplineSet
995 259.15234375 m 0
 930.865234375 89.8876953125 793.13208609 -35 562 -35 c 256
 293 -35 106 138 106 448 c 258
 106 603 l 258
 106 903 293 1085 570 1085 c 256
 837 1085 993.481321461 887.353083785 1016 674 c 256
 1019.2311824 643.386181906 1022.99929077 606.617192524 1023 593 c 0
 1023.00390625 518 991 485 914 485 c 2
 230 485 l 257
 230 605 l 257
 840 605 l 257
 835 832 733 955 570 955 c 256
 413 955 296 843 296 633 c 258
 296 418 l 258
 296 198 403 95 570 95 c 256
 692.272180523 95 773.84765625 161.118164062 822.6484375 262 c 0
 854.9375 328.749023438 887.044921875 368 934 368 c 6
 935 368 l 6
 987.0625 368 1021.95410156 330.288085938 995 259.15234375 c 0
EndSplineSet
EndChar

StartChar: f
Encoding: 102 102 43
Width: 620
VWidth: 1920
Flags: HMW
LayerCount: 2
Fore
SplineSet
510 910 m 2
 140 910 l 2
 63 910 30 930 30 977 c 2
 30 987 l 2
 30 1034 63 1050 140 1050 c 2
 510 1050 l 2
 587 1050 620 1034 620 987 c 2
 620 977 l 2
 620 930 587 910 510 910 c 2
180 1188 m 258
 180 1395.14532511 289.596901543 1453.34499298 508 1445.16601562 c 0
 586.976784297 1442.20841413 620 1427.046875 620 1380 c 2
 620 1370 l 2
 620 1323.15625 586.903389799 1320.8800896 504 1315.88964844 c 0
 428.01200304 1311.31548532 365 1293.49478024 365 1168 c 258
 365 80 l 2
 365 13 322 -30 275 -30 c 2
 270 -30 l 2
 223 -30 180 13 180 80 c 2
 180 1188 l 258
EndSplineSet
EndChar

StartChar: g
Encoding: 103 103 44
Width: 1000
VWidth: 1920
Flags: HMW
LayerCount: 2
Fore
SplineSet
941.319335938 1170 m 0
 905.340820312 1038.91113281 724.158891667 970 675 970 c 257
 645 1000 l 257
 704.090374663 1000 727.172851562 1057.83984375 750.635742188 1181 c 0
 766.708007812 1265.3671875 811.014648438 1290 858 1290 c 2
 868 1290 l 2
 915.182617188 1290 965.900390625 1259.56152344 941.319335938 1170 c 0
643 140 m 258
 883 140 1005 82 1005 -85 c 256
 1005 -262 803 -360 563 -360 c 258
 338 -360 l 258
 158 -360 5 -292 5 -135 c 256
 5 -18 138 90 298 90 c 257
 328 50 l 257
 238 50 165 2 165 -75 c 256
 165 -172 268 -210 398 -210 c 258
 543 -210 l 258
 733 -210 845 -152 845 -75 c 256
 845 -18 783 0 663 0 c 258
 388 0 l 258
 198 0 126 98 126 195 c 256
 126 302 220 395 410 395 c 257
 390 345 l 257
 330 345 286 302 286 245 c 256
 286 183 338 140 468 140 c 258
 643 140 l 258
725 668 m 258
 725 723 l 258
 725 870.170898438 642.73046875 955 500.727539062 955 c 256
 352.546875 955 255 862.629882812 255 723 c 258
 255 668 l 258
 255 528.012695312 352.802734375 435 500.729492188 435 c 256
 642.5 435 725 520.432617188 725 668 c 258
905 638 m 258
 905 458 757 305 490 305 c 256
 223 305 75 458 75 638 c 258
 75 753 l 258
 75 933 223 1085 490 1085 c 256
 757 1085 905 933 905 753 c 258
 905 638 l 258
EndSplineSet
EndChar

StartChar: h
Encoding: 104 104 45
Width: 1110
VWidth: 1920
Flags: HMW
LayerCount: 2
Fore
SplineSet
215 1480 m 6
 225 1480 l 6
 272 1480 315 1447 315 1370 c 6
 315 80 l 6
 315 3 271.595703125 -30 225 -30 c 6
 215 -30 l 6
 168 -30 125 3 125 80 c 6
 125 1370 l 6
 125 1447 168 1480 215 1480 c 6
265 703 m 257
 265 923 433 1085 640 1085 c 256
 847 1085 985 963 985 763 c 258
 985 80 l 6
 985 3 942 -30 895 -30 c 6
 885 -30 l 6
 838 -30 795 3 795 80 c 6
 795 763 l 258
 795 883 727 955 590 955 c 256
 423 955 315 833 315 623 c 257
 265 703 l 257
EndSplineSet
EndChar

StartChar: i
Encoding: 105 105 46
Width: 445
VWidth: 1920
Flags: HMW
LayerCount: 2
Fore
SplineSet
348 1335 m 6
 348 1325 l 6
 348 1260.76660156 298.072265625 1210 228 1210 c 6
 218 1210 l 6
 147.927734375 1210 98 1260.76660156 98 1325 c 6
 98 1335 l 6
 98 1399.23339844 147.927734375 1450 218 1450 c 6
 228 1450 l 6
 298.072265625 1450 348 1399.23339844 348 1335 c 6
318 970 m 2
 318 80 l 2
 318 3 275 -30 228 -30 c 2
 218 -30 l 2
 171 -30 128 3 128 80 c 2
 128 970 l 2
 128 1047 171 1080 218 1080 c 2
 228 1080 l 2
 275 1080 318 1047 318 970 c 2
EndSplineSet
EndChar

StartChar: j
Encoding: 106 106 47
Width: 445
VWidth: 1920
Flags: HMW
LayerCount: 2
Fore
SplineSet
348 1335 m 2
 348 1325 l 2
 348 1260.76660156 298.072265625 1210 228 1210 c 2
 218 1210 l 2
 147.927734375 1210 98 1260.76660156 98 1325 c 2
 98 1335 l 2
 98 1399.23339844 147.927734375 1450 218 1450 c 2
 228 1450 l 2
 298.072265625 1450 348 1399.23339844 348 1335 c 2
318 -98 m 258
 318 -305.388243546 188.18645122 -367.880779525 -21 -355.072265625 c 4
 -98.8880835601 -350.303168032 -132 -337.040039062 -132 -290 c 2
 -132 -280 l 6
 -132 -233.059570312 -99.0297659516 -223.432697909 -22 -225.215820312 c 4
 48.1120084355 -226.838807108 128 -205.207856125 128 -78 c 258
 128 970 l 2
 128 1047 171 1080 218 1080 c 2
 228 1080 l 2
 275 1080 318 1047 318 970 c 2
 318 -98 l 258
EndSplineSet
EndChar

StartChar: k
Encoding: 107 107 48
Width: 1000
VWidth: 1920
Flags: HMW
LayerCount: 2
Fore
SplineSet
210 1480 m 2
 220 1480 l 2
 267 1480 310 1447 310 1370 c 2
 310 80 l 2
 310 3 266.595703125 -30 220 -30 c 2
 210 -30 l 2
 163 -30 120 3 120 80 c 2
 120 1370 l 2
 120 1447 163 1480 210 1480 c 2
190 463 m 257
 693 1000 l 2
 750.592372415 1061.4852962 792.986328125 1080 821 1080 c 2
 825 1080 l 2
 892 1080 916.806903662 1009.65310885 853 950 c 2
 300 433 l 257
 190 463 l 257
420 653 m 257
 570 713 l 257
 934 137 l 6
 1001.93043094 29.5056917066 932 -30 885 -30 c 6
 875 -30 l 6
 826.94140625 -30 803.119140625 -7.111328125 764 60 c 2
 420 653 l 257
EndSplineSet
EndChar

StartChar: l
Encoding: 108 108 49
Width: 445
VWidth: 1920
Flags: HMW
LayerCount: 2
Fore
SplineSet
218 1480 m 6
 228 1480 l 6
 275 1480 318 1447 318 1370 c 6
 318 80 l 6
 318 3 274.595703125 -30 228 -30 c 6
 218 -30 l 6
 171 -30 128 3 128 80 c 6
 128 1370 l 6
 128 1447 171 1480 218 1480 c 6
EndSplineSet
EndChar

StartChar: m
Encoding: 109 109 50
Width: 1665
VWidth: 1920
Flags: HMW
LayerCount: 2
Fore
SplineSet
858 703 m 257
 858 923 1035 1085 1222 1085 c 256
 1409 1085 1538 962.991378922 1538 763 c 258
 1538 80 l 2
 1538 3 1495 -30 1448 -30 c 2
 1438 -30 l 2
 1391 -30 1348 3 1348 80 c 2
 1348 763 l 258
 1348 882.999370063 1289 955 1172 955 c 256
 1025 955 928 833 928 623 c 257
 858 703 l 257
213 1080 m 6
 223 1080 l 2
 270 1080 308 1047 308 970 c 2
 308 852 l 257
 318 825 l 257
 318 80 l 2
 318 3 275 -30 228 -30 c 2
 218 -30 l 2
 171 -30 128 3 128 80 c 2
 128 970 l 2
 128 1047 166 1080 213 1080 c 6
268 703 m 257
 268 923 425 1085 612 1085 c 256
 799 1085 928 962.994233362 928 763 c 258
 928 80 l 2
 928 3 885 -30 838 -30 c 2
 828 -30 l 2
 781 -30 738 3 738 80 c 2
 738 763 l 258
 738 882.999785107 679 955 562 955 c 256
 415 955 318 833 318 623 c 257
 268 703 l 257
EndSplineSet
EndChar

StartChar: n
Encoding: 110 110 51
Width: 1110
VWidth: 1920
Flags: HMW
LayerCount: 2
Fore
SplineSet
210 1080 m 2
 220 1080 l 2
 267 1080 305 1047 305 970 c 2
 305 837 l 257
 315 810 l 257
 315 80 l 2
 315 3 272 -30 225 -30 c 2
 215 -30 l 2
 168 -30 125 3 125 80 c 2
 125 970 l 2
 125 1047 163 1080 210 1080 c 2
265 703 m 257
 265 923 433 1085 640 1085 c 256
 847 1085 985 962.995075946 985 763 c 258
 985 80 l 2
 985 3 942 -30 895 -30 c 2
 885 -30 l 2
 838 -30 795 3 795 80 c 2
 795 763 l 258
 795 883 727 955 590 955 c 256
 423 955 315 833 315 623 c 257
 265 703 l 257
EndSplineSet
EndChar

StartChar: o
Encoding: 111 111 52
Width: 1110
VWidth: 1920
Flags: HMW
LayerCount: 2
Fore
SplineSet
90 448 m 262
 90 603 l 262
 90 893 278 1085 555 1085 c 260
 832 1085 1020 893 1020 603 c 262
 1020 448 l 262
 1020 158 832 -35 555 -35 c 260
 278 -35 90 158 90 448 c 262
285 418 m 262
 285 228 368 95 555 95 c 260
 742 95 825 228 825 418 c 262
 825 633 l 262
 825 823 742 955 555 955 c 260
 368 955 285 823 285 633 c 262
 285 418 l 262
EndSplineSet
EndChar

StartChar: p
Encoding: 112 112 53
Width: 1110
VWidth: 1920
Flags: HMW
LayerCount: 2
Fore
SplineSet
215 633 m 257
 215 923 424 1085 621 1085 c 256
 828 1085 1035 943 1035 603 c 258
 1035 447 l 258
 1035 107 828 -35 621 -35 c 256
 424 -35 215 127 215 417 c 257
 285 437 l 257
 285 227 424 105 581 105 c 256
 728 105 845 207 845 417 c 258
 845 633 l 258
 845 843 728 945 581 945 c 256
 424 945 285 823 285 613 c 257
 215 633 l 257
95 -280 m 6
 95 970 l 2
 95 1037 133 1080 180 1080 c 2
 185 1080 l 2
 232 1080 270 1037 270 970 c 2
 270 830 l 257
 285 798 l 257
 285 -280 l 6
 285 -347 242 -390 195 -390 c 6
 185 -390 l 6
 138 -390 95 -347 95 -280 c 6
EndSplineSet
EndChar

StartChar: q
Encoding: 113 113 54
Width: 1110
VWidth: 1920
Flags: HMW
LayerCount: 2
Fore
SplineSet
925 -390 m 2
 915 -390 l 2
 868 -390 825 -357 825 -290 c 2
 825 865 l 261
 882 985 l 6
 910.221679688 1044.41308594 938 1075 965 1075 c 6
 966 1075 l 6
 993 1075 1015 1062 1015 1015 c 6
 1015 -290 l 6
 1015 -357 972 -390 925 -390 c 2
895 417 m 257
 895 127 688 -35 491 -35 c 256
 284 -35 75 107 75 447 c 258
 75 603 l 258
 75 923 274 1085 481 1085 c 256
 708 1085 925 923 925 633 c 257
 825 613 l 257
 825 823 688 945 531 945 c 256
 384 945 265 843 265 633 c 258
 265 417 l 258
 265 207 384 105 531 105 c 256
 688 105 825 227 825 437 c 257
 895 417 l 257
EndSplineSet
EndChar

StartChar: r
Encoding: 114 114 55
Width: 715
VWidth: 1920
Flags: HMW
LayerCount: 2
Fore
SplineSet
200 1080 m 10
 215 1080 l 2
 262 1080 295 1047 295 970 c 2
 295 774 l 257
 310 765 l 257
 310 80 l 2
 310 3 267 -30 220 -30 c 2
 210 -30 l 2
 163 -30 120 3 120 80 c 2
 120 970 l 2
 120 1047 153 1080 200 1080 c 10
270 723 m 257
 270 908.681735595 410.2734375 1047.61621094 581 1074.02832031 c 0
 661.059570312 1086.4140625 705 1047.26171875 705 1000 c 2
 705 990 l 2
 705 943.345703125 660.647460938 919.697265625 578 904.64453125 c 4
 462.42578125 883.595703125 310 809.542808017 310 663 c 261
 270 723 l 257
EndSplineSet
EndChar

StartChar: s
Encoding: 115 115 56
Width: 1000
VWidth: 1920
Flags: HMW
LayerCount: 2
Fore
SplineSet
142 388 m 6
 147 388 l 6
 183.896484375 388 209.266601562 351.163085938 233.560546875 279 c 0
 265.727539062 183.450195312 370.523318816 105 523.759884504 105 c 256
 668.505414366 105 762 168.312529998 762 266.736688537 c 256
 762 354.106965413 688.326642205 407.175111082 487.211855167 463.993018956 c 256
 217.090634428 540.306267029 112 618.181784853 112 778.356487191 c 256
 112 960.676259892 266.895212833 1085 493.695560072 1085 c 256
 718.059120712 1085 857.421875 957.181640625 885.520507812 812 c 0
 899.96484375 737.370117188 869.088867188 703 822 703 c 2
 818 703 l 2
 771.155273438 703 750.764038344 742.313621066 720.1328125 813 c 0
 691.854739563 878.256107912 635.339101484 950 491.967773438 950 c 256
 364.301757812 950 282 895.34375 282 794.844726562 c 256
 282 716.940429688 331.455078125 683.631835938 536.948242188 622.90234375 c 256
 847.232421875 531.203125 932 458.533642848 932 301.913447603 c 256
 932 89.9927382596 776.804279251 -35 512.842256306 -35 c 256
 239.125061004 -35 108.987304688 99.6865234375 72.5732421875 280 c 0
 57.7225147234 353.537147868 84.9501953125 388 142 388 c 6
EndSplineSet
EndChar

StartChar: t
Encoding: 116 116 57
Width: 625
VWidth: 1920
Flags: HMW
LayerCount: 2
Fore
SplineSet
500 910 m 2
 110 910 l 2
 33 910 -2.877919978e-15 928 0 975 c 2
 0 985 l 2
 -2.877919978e-15 1032 33 1050 110 1050 c 2
 500 1050 l 2
 577 1050 610 1032 610 985 c 2
 610 975 l 2
 610 928 577 910 500 910 c 2
625 70 m 2
 625 60 l 2
 625 12.9619140625 581.917694347 -3.61012549374 505 -8.30859375 c 0
 285.118259939 -21.7399294729 160 44.3721379873 160 252 c 258
 160 1220 l 2
 160 1297 203 1340 250 1340 c 2
 255 1340 l 2
 302 1340 345 1297 345 1220 c 2
 345 272 l 258
 345 144.507012174 424.985351562 124.44140625 506 125.901367188 c 4
 582.038085938 127.271484375 625 116.951171875 625 70 c 2
EndSplineSet
EndChar

StartChar: u
Encoding: 117 117 58
Width: 1110
VWidth: 1920
Flags: HMW
LayerCount: 2
Fore
SplineSet
902 -30 m 6
 887 -30 l 6
 840 -30 807 3 807 80 c 2
 807 193 l 257
 792 250 l 257
 792 970 l 6
 792 1047 835 1080 882 1080 c 6
 892 1080 l 6
 939 1080 982 1047 982 970 c 2
 982 80 l 2
 982 3 949 -30 902 -30 c 6
842 347 m 257
 842 127 675 -35 468 -35 c 256
 261 -35 122 87.0231529633 122 287 c 258
 122 970 l 2
 122 1047 165 1080 212 1080 c 6
 222 1080 l 6
 269 1080 312 1047 312 970 c 2
 312 287 l 258
 313.572312153 167.032582705 381 95 518 95 c 256
 685 95 792 217 792 427 c 257
 842 347 l 257
EndSplineSet
EndChar

StartChar: v
Encoding: 118 118 59
Width: 1000
VWidth: 1920
Flags: HMW
LayerCount: 2
Fore
SplineSet
510 158 m 257
 784 970 l 2
 807.53112388 1039.7345715 835 1080 882 1080 c 2
 892 1080 l 2
 949 1080 977.462375139 1038.67125416 952 970 c 2
 622 80 l 2
 589.692230855 -7.13307436182 549 -30 502 -30 c 2
 488 -30 l 2
 441 -30 400.379564716 -6.73233725988 369 80 c 2
 47 970 l 2
 22.1345994124 1038.72734945 71 1080 118 1080 c 6
 128 1080 l 6
 175 1080 212.46887612 1039.7345715 236 970 c 2
 510 158 l 257
EndSplineSet
EndChar

StartChar: w
Encoding: 119 119 60
Width: 1445
VWidth: 1920
Flags: HMW
LayerCount: 2
Fore
SplineSet
1040 208 m 257
 1229 970 l 2
 1247.1075492 1043.00503962 1268.35449219 1080 1315 1080 c 2
 1325 1080 l 2
 1372.34570312 1080 1408.42610443 1041.29110956 1388 970 c 2
 1133 80 l 2
 1112.53584006 8.57606921987 1077.02832031 -30 1030 -30 c 2
 1025 -30 l 2
 978.034179688 -30 941.972616836 7.2064015835 922 80 c 2
 725 798 l 257
 533 80 l 2
 513.400614016 6.70646283019 477.028320312 -30 430 -30 c 2
 415 -30 l 2
 368.034179688 -30 332.734375 7.34765625 312 80 c 2
 69 930 l 6
 40.4928928513 1029.71621842 88 1080 145 1080 c 6
 155 1080 l 2
 201.965820312 1080 227.179444422 1043.40142351 245 970 c 2
 430 208 l 257
 637 970 l 2
 656.68615659 1042.46788078 687.971679688 1080 735 1080 c 2
 740 1080 l 2
 786.965820312 1080 818.730670503 1042.68925286 838 970 c 2
 1040 208 l 257
EndSplineSet
EndChar

StartChar: x
Encoding: 120 120 61
Width: 1000
VWidth: 1920
Flags: HMW
LayerCount: 2
Fore
SplineSet
165 -30 m 6
 160 -30 l 6
 93 -30 75.8038450531 51.4561128058 137 140 c 6
 410 535 l 257
 132 940 l 2
 79.9773108031 1015.78845009 138 1080 195 1080 c 2
 200 1080 l 2
 247.05859375 1080 274.773325103 1048.81313348 325 970 c 2
 513 675 l 257
 692 970 l 2
 741.067580059 1050.8655649 767.890625 1080 805 1080 c 2
 810 1080 l 2
 867 1080 909.714794659 1007.54889475 848 920 c 2
 590 554 l 257
 855 150 l 2
 919.624642258 51.4779038788 892 -30 825 -30 c 2
 815 -30 l 2
 766.94140625 -30 735.177895972 15.4346582574 694 80 c 2
 488 403 l 257
 289 80 l 2
 244.305730494 7.45603492285 212.109375 -30 165 -30 c 6
EndSplineSet
EndChar

StartChar: y
Encoding: 121 121 62
Width: 1000
VWidth: 1920
Flags: HMW
LayerCount: 2
Fore
SplineSet
497 208 m 257
 767 970 l 2
 788.315197677 1030.15622456 817.971679688 1080 865 1080 c 2
 870 1080 l 2
 927 1080 947.590860453 1016.85164792 919 940 c 2
 528 -111 l 258
 423.07252976 -392.99257627 314.513689933 -387.379218572 196 -373.859375 c 0
 114.385302916 -364.548906831 81 -337.043945312 81 -300 c 6
 81 -295 l 6
 81 -248.088867188 111.022917894 -228.552360381 192 -239.418945312 c 0
 266.172853867 -249.372448145 328.777650783 -234.548537599 402 -10 c 257
 74 940 l 2
 47.0322037418 1018.10794648 88 1080 145 1080 c 2
 155 1080 l 2
 202 1080 231.411820519 1030.67558034 251 970 c 2
 497 208 l 257
EndSplineSet
EndChar

StartChar: z
Encoding: 122 122 63
Width: 1000
VWidth: 1920
Flags: HMW
LayerCount: 2
Fore
SplineSet
135 160 m 2
 709 900 l 1
 242 900 l 2
 163.48046875 900 132 921.404296875 132 970 c 2
 132 980 l 2
 132 1028.52050781 163.404296875 1050 242 1050 c 2
 832 1050 l 2
 929 1050 948.77423119 969.264762699 903 910 c 2
 316 150 l 1
 882 150 l 2
 959 150 992 127 992 80 c 2
 992 70 l 2
 992 23.015625 959 -9.42978035343e-15 882 0 c 2
 192 0 l 2
 106 0 78.4637147189 87.1134998118 135 160 c 2
EndSplineSet
EndChar

StartChar: comma
Encoding: 44 44 65
Width: 540
VWidth: 1920
Flags: HMW
LayerCount: 2
Fore
SplineSet
165 -220 m 2
 164 -220 l 2
 147 -220 136.672828295 -208.037409297 157 -169 c 2
 245 0 l 257
 235 0 l 2
 186.479492188 0 145 51.404296875 145 110 c 2
 145 120 l 2
 145 187 192 240 269 240 c 6
 279 240 l 6
 356 240 405 187 405 120 c 2
 405 110 l 2
 405 63 376.689682904 12.8046300551 340 -30 c 2
 280 -100 l 2
 198.869606599 -193.611992386 183 -220 165 -220 c 2
EndSplineSet
EndChar

StartChar: exclam
Encoding: 33 33 67
Width: 540
VWidth: 1920
Flags: HMW
LayerCount: 2
Fore
SplineSet
275 -30 m 2
 265 -30 l 2
 187.740758533 -30 135 32.7407585333 135 100 c 2
 135 110 l 2
 135 177.259241467 187.740758533 240 265 240 c 2
 275 240 l 2
 352.259241467 240 405 177.259241467 405 110 c 2
 405 100 l 2
 405 32.7407585333 352.259241467 -30 275 -30 c 2
175 1030 m 2
 175 1370 l 2
 175 1447 218 1480 265 1480 c 2
 275 1480 l 2
 322 1480 365 1447 365 1370 c 2
 365 1030 l 2
 365 983 361.517122323 906.343827514 356 860 c 2
 311 480 l 2
 304.343336332 423.788173473 288 410 271 410 c 2
 269 410 l 2
 252 410 235.656663668 423.788173473 229 480 c 2
 184 860 l 2
 178.482877677 906.343827514 175 983 175 1030 c 2
EndSplineSet
EndChar

StartChar: quotesingle
Encoding: 39 39 70
Width: 370
VWidth: 1920
Flags: HMW
LayerCount: 2
Fore
SplineSet
190 930 m 6
 180 930 l 6
 163 930 156.480969297 944.969909425 148 980 c 6
 102 1170 l 6
 88.2774992584 1226.67989437 80 1288 80 1335 c 6
 80 1340 l 6
 80 1397 123 1450 180 1450 c 6
 190 1450 l 6
 247 1450 290 1397 290 1340 c 6
 290 1335 l 6
 290 1288 281.722500742 1226.67989437 268 1170 c 6
 222 980 l 6
 213.519030703 944.969909425 207 930 190 930 c 6
EndSplineSet
EndChar

StartChar: question
Encoding: 63 63 71
Width: 1080
VWidth: 1920
Flags: HMW
LayerCount: 2
Fore
SplineSet
655 0 m 2
 465 0 l 2
 458 0 455 3 455 10 c 2
 455 200 l 2
 455 207 458 210 465 210 c 2
 655 210 l 2
 662 210 665 207 665 200 c 2
 665 10 l 2
 665 3 662 0 655 0 c 2
600 400 m 2
 510 400 l 2
 502.91162141 400 499.546835977 402.940166433 498.740177597 409 c 0
 455.886085614 730.931404503 805 748.144767228 805 1023 c 258
 805 1068 l 258
 805 1188 736 1285 579 1285 c 256
 409 1285 325 1184.77129372 325 1052 c 258
 325 962 l 2
 325 955 322 952 315 952 c 2
 155 952 l 2
 148 952 145 955 145 962 c 2
 145 1052 l 258
 145 1276 312 1435 589 1435 c 256
 836 1435 1005 1293 1005 1073 c 258
 1005 1048 l 258
 1005 734.727454173 669.930949857 713.434529336 611.557051229 408 c 0
 610.570023307 402.835492986 606.93028855 400 600 400 c 2
EndSplineSet
EndChar

StartChar: parenleft
Encoding: 40 40 72
Width: 535
VWidth: 2048
Flags: HMW
LayerCount: 2
Fore
SplineSet
70 838 m 262
 70 1243 204.156005275 1556.80356137 489.315429688 1618 c 4
 516.559305141 1623.84665282 530 1607.13964844 530 1580 c 6
 530 1570 l 6
 530 1543.21679688 515.20805091 1537.59516063 490.721679688 1526 c 4
 349.113191981 1458.94338528 245 1259 245 858 c 262
 245 392 l 262
 245 -9 349.11328125 -208.943359375 490.721679688 -276 c 4
 515.208007812 -287.594726562 530 -293.216796875 530 -320 c 6
 530 -330 l 6
 530 -357.139648438 516.559570312 -373.846679688 489.315429688 -368 c 4
 204.15625 -306.803710938 70 7 70 412 c 262
 70 838 l 262
EndSplineSet
EndChar

StartChar: parenright
Encoding: 41 41 73
Width: 535
VWidth: 2048
Flags: HMW
LayerCount: 2
Fore
SplineSet
465 412 m 258
 465 7 330.84375 -306.803710938 45.6845703125 -368 c 0
 18.4404296875 -373.846679688 5 -357.139648438 5 -330 c 2
 5 -320 l 2
 5 -293.216796875 19.7919921875 -287.594726562 44.2783203125 -276 c 0
 185.88671875 -208.943359375 290 -9 290 392 c 258
 290 858 l 258
 290 1259 185.88671875 1458.94335938 44.2783203125 1526 c 0
 19.7919921875 1537.59472656 5 1543.21679688 5 1570 c 2
 5 1580 l 2
 5 1607.13964844 18.4404296875 1623.84667969 45.6845703125 1618 c 0
 330.84375 1556.80371094 465 1243 465 838 c 258
 465 412 l 258
EndSplineSet
EndChar

StartChar: asterisk
Encoding: 42 42 74
Width: 914
VWidth: 2048
Flags: HMW
LayerCount: 2
Back
SplineSet
492 1020 m 261
 422 1020 l 261
 380 1320 l 6
 374 1366 369 1392 369 1409 c 6
 369 1410 l 6
 369 1447 400 1480 452 1480 c 6
 462 1480 l 6
 514 1480 545 1447 545 1410 c 6
 545 1409 l 6
 545 1382 540 1366 534 1320 c 6
 492 1020 l 261
EndSplineSet
Fore
SplineSet
468 986 m 257
 446 1053 l 257
 718 1186 l 2
 760 1206 784 1219 800 1224 c 2
 801 1224 l 2
 836 1235 877 1216 893 1167 c 2
 896 1157 l 2
 912 1108 890 1068 855 1057 c 2
 854 1056 l 2
 828 1048 812 1048 766 1039 c 2
 468 986 l 257
428 1000 m 257
 485 1041 l 257
 695 823 l 2
 727 789 746 772 756 758 c 2
 757 757 l 2
 779 727 773 682 731 651 c 2
 723 645 l 2
 681 614 636 623 614 653 c 2
 614 654 l 2
 598 676 592 692 570 733 c 2
 428 1000 l 257
429 1041 m 257
 486 1000 l 257
 343 732 l 2
 321 691 310 668 300 654 c 2
 299 653 l 2
 277 623 233 614 191 645 c 2
 183 651 l 2
 141 682 135 727 157 757 c 2
 157 757 l 2
 173 779 187 789 219 823 c 2
 429 1041 l 257
468 1053 m 257
 446 986 l 257
 148 1039 l 2
 102 1048 76 1051 60 1056 c 2
 59 1057 l 2
 24 1068 2 1108 18 1157 c 2
 21 1167 l 2
 37 1216 78 1235 113 1224 c 2
 114 1224 l 2
 140 1216 154 1206 196 1186 c 2
 468 1053 l 257
492 1020 m 257
 422 1020 l 257
 380 1320 l 2
 374 1366 369 1392 369 1409 c 2
 369 1410 l 2
 369 1447 400 1480 452 1480 c 2
 462 1480 l 2
 514 1480 545 1447 545 1410 c 2
 545 1409 l 2
 545 1382 540 1366 534 1320 c 2
 492 1020 l 257
EndSplineSet
EndChar

StartChar: at
Encoding: 64 64 75
Width: 1990
VWidth: 1920
Flags: HMW
LayerCount: 2
Fore
SplineSet
1265 472 m 257
 1265 182 1118 40 921 40 c 256
 734 40 565 157 565 497 c 258
 565 528 l 258
 565 848 724 985 911 985 c 256
 1118 985 1275 843 1275 553 c 257
 1175 533 l 257
 1175 743 1098 845 961 845 c 256
 834 845 755 763 755 553 c 258
 755 472 l 258
 755 262 834 180 961 180 c 256
 1098 180 1175 282 1175 492 c 257
 1265 472 l 257
1292 -284.827148438 m 0
 1213.25585938 -328.194335938 1134.91626673 -360 985 -360 c 256
 428 -360 100 13 100 493 c 258
 100 583 l 258
 100 1093 488 1435 1025 1435 c 256
 1632 1435 1890 1024 1890 633 c 258
 1890 543 l 258
 1890 183 1697 40 1490 40 c 256
 1283 40 1175 185 1175 405 c 258
 1175 775 l 257
 1232 895 l 2
 1260 954 1288 985 1315 985 c 2
 1316 985 l 2
 1343 985 1365 972 1365 925 c 2
 1365 445 l 2
 1365 250 1403 180 1510 180 c 256
 1607 180 1710 303 1710 543 c 258
 1710 633 l 258
 1710 973 1472 1295 1025 1295 c 256
 618 1295 290 1013 290 593 c 258
 290 483 l 258
 290 103 548 -220 985 -220 c 256
 1087.12312814 -220 1172.51357297 -191.077452199 1237 -154.412109375 c 0
 1292.15103318 -123.054634139 1329.55664062 -146.669921875 1338 -172 c 2
 1340 -178 l 2
 1351.61650391 -212.849511719 1341.94801246 -257.31900873 1292 -284.827148438 c 0
EndSplineSet
EndChar

StartChar: dollar
Encoding: 36 36 76
Width: 1110
VWidth: 1920
Flags: HMW
LayerCount: 2
Fore
SplineSet
545 1590 m 2
 555 1590 l 2
 572 1590 590 1577 590 1540 c 2
 590 -140 l 2
 590 -177 572 -190 555 -190 c 2
 545 -190 l 2
 528 -190 510 -177 510 -140 c 2
 510 1540 l 2
 510 1577 528 1590 545 1590 c 2
140 538 m 6
 150 538 l 6
 196.94140625 538 223.805206505 503.500908113 238.4765625 429 c 0
 268.683355961 275.610392057 351.395044194 115 555.08984375 115 c 256
 733.124023438 115 860 196.604492188 860 348 c 256
 860 501.729492188 741.254882812 562.672851562 543 614.35546875 c 256
 240.51953125 693.208007812 110 824.966796875 110 1053 c 256
 110 1303 293 1435 540 1435 c 256
 823.79581868 1435 945.493836184 1266.78397272 974.615234375 1043 c 0
 984.552679707 966.63550059 952.051757812 933 905 933 c 2
 895 933 l 2
 848.05859375 933 826.300905756 966.852545292 814.942382812 1042 c 0
 793.708538826 1182.48211526 724.312360476 1295 540 1295 c 256
 383 1295 280 1208 280 1068 c 256
 280 926.723632812 393.600605769 834.996889601 563 792.26171875 c 256
 903.348632812 706.400390625 1040 576.510742188 1040 378 c 256
 1040 110.7265625 884.341796875 -35 545.27734375 -35 c 256
 280.437306631 -35 112.394639805 137.304802132 68.6201171875 428 c 0
 57.1591434663 504.109339964 92.9501953125 538 140 538 c 6
EndSplineSet
EndChar

StartChar: numbersign
Encoding: 35 35 77
Width: 1300
VWidth: 1920
Flags: HMW
LayerCount: 2
Fore
SplineSet
120 540 m 6
 1100 540 l 2
 1157 540 1180 527 1180 490 c 2
 1180 480 l 2
 1180 443 1158 430 1100 430 c 2
 120 430 l 6
 53 430 40 443 40 480 c 2
 40 490 l 2
 40 527 53 540 120 540 c 6
210 1050 m 2
 1180 1050 l 2
 1237 1050 1260 1037 1260 1000 c 2
 1260 990 l 2
 1260 953 1237 940 1180 940 c 2
 210 940 l 2
 143 940 120 953 120 990 c 2
 120 1000 l 2
 120 1037 143 1050 210 1050 c 2
1005 1430 m 2
 1010 1430 l 2
 1060 1430 1086.61959383 1382.82319887 1067 1300 c 2
 778 80 l 2
 760.622725951 6.64264934434 745 -30 695 -30 c 2
 690 -30 l 2
 640 -30 615.622725951 26.6426493443 633 100 c 2
 922 1320 l 2
 937.146457345 1383.88301737 955 1430 1005 1430 c 2
585 1430 m 2
 590 1430 l 2
 637 1430 666.61959383 1382.82319887 647 1300 c 2
 358 80 l 2
 340.622725951 6.64264934434 322 -30 275 -30 c 2
 270 -30 l 2
 223 -30 195.622725951 26.6426493443 213 100 c 2
 502 1320 l 2
 517.146457345 1383.88301737 538 1430 585 1430 c 2
EndSplineSet
EndChar

StartChar: slash
Encoding: 47 47 78
Width: 840
VWidth: 2048
Flags: HMW
LayerCount: 2
Fore
SplineSet
746 1270 m 2
 209 -20 l 2
 184.164905701 -79.6597237357 157 -130 110 -130 c 2
 100 -130 l 2
 43 -130 33.5209979101 -55.228887702 69 30 c 2
 606 1320 l 2
 630.835094299 1379.65972374 659 1430 705 1430 c 2
 715 1430 l 2
 772 1430 781.47900209 1355.2288877 746 1270 c 2
EndSplineSet
EndChar

StartChar: percent
Encoding: 37 37 79
Width: 1755
VWidth: 2048
Flags: HMW
LayerCount: 2
Back
SplineSet
100 1048 m 262
 100 1083 l 262
 100 1273 258 1400 435 1400 c 260
 612 1400 780 1273 780 1083 c 262
 780 1048 l 262
 780 858 612 730 435 730 c 260
 258 730 100 858 100 1048 c 262
275 1028 m 262
 275 918 348 860 435 860 c 260
 522 860 605 918 605 1028 c 262
 605 1103 l 262
 605 1213 522 1270 435 1270 c 260
 348 1270 275 1213 275 1103 c 262
 275 1028 l 262
975 283 m 262
 975 318 l 262
 975 508 1133 635 1310 635 c 260
 1487 635 1655 508 1655 318 c 262
 1655 283 l 262
 1655 93 1487 -35 1310 -35 c 260
 1133 -35 975 93 975 283 c 262
1150 263 m 262
 1150 153 1223 95 1310 95 c 260
 1397 95 1480 153 1480 263 c 262
 1480 338 l 262
 1480 448 1397 505 1310 505 c 260
 1223 505 1150 448 1150 338 c 262
 1150 263 l 262
1379 1390 m 6
 536 10 l 6
 531.55136443 2.71753607676 462 -30 455 -30 c 6
 450 -30 l 6
 443 -30 371.55136443 2.71753607676 376 10 c 6
 1219 1390 l 6
 1223.44863557 1397.28246392 1293 1430 1300 1430 c 6
 1305 1430 l 6
 1312 1430 1383.44863557 1397.28246392 1379 1390 c 6
EndSplineSet
Fore
SplineSet
100 1048 m 258
 100 1083 l 258
 100 1273 258 1400 435 1400 c 256
 612 1400 780 1273 780 1083 c 258
 780 1048 l 258
 780 858 612 730 435 730 c 256
 258 730 100 858 100 1048 c 258
275 1028 m 258
 275 918 348 860 435 860 c 256
 522 860 605 918 605 1028 c 258
 605 1103 l 258
 605 1213 522 1270 435 1270 c 256
 348 1270 275 1213 275 1103 c 258
 275 1028 l 258
975 283 m 258
 975 318 l 258
 975 508 1133 635 1310 635 c 256
 1487 635 1655 508 1655 318 c 258
 1655 283 l 258
 1655 93 1487 -35 1310 -35 c 256
 1133 -35 975 93 975 283 c 258
1150 263 m 258
 1150 153 1223 95 1310 95 c 256
 1397 95 1480 153 1480 263 c 258
 1480 338 l 258
 1480 448 1397 505 1310 505 c 256
 1223 505 1150 448 1150 338 c 258
 1150 263 l 258
1318 1290 m 2
 579 80 l 2
 530.070070086 -0.115311496495 512 -30 465 -30 c 6
 460 -30 l 2
 403 -30 388.070070086 29.8846885035 437 110 c 2
 1176 1320 l 6
 1224.92992991 1400.1153115 1243 1430 1290 1430 c 6
 1295 1430 l 2
 1372 1430 1366.92992991 1370.1153115 1318 1290 c 2
EndSplineSet
EndChar

StartChar: hyphen
Encoding: 45 45 80
Width: 570
VWidth: 1920
Flags: HMW
LayerCount: 2
Fore
SplineSet
10 605 m 14
 10 620 l 22
 10 657 43 690 110 690 c 14
 460 690 l 22
 527 690 560 657 560 620 c 14
 560 605 l 22
 560 568 527 535 460 535 c 14
 110 535 l 22
 43 535 10 568 10 605 c 14
EndSplineSet
EndChar

StartChar: underscore
Encoding: 95 95 81
Width: 900
VWidth: 1920
Flags: HMW
LayerCount: 2
Fore
SplineSet
-30 -85 m 10
 -30 -70 l 18
 -30 -33 3 0 70 0 c 10
 830 0 l 18
 897 0 930 -33 930 -70 c 10
 930 -85 l 18
 930 -122 897 -155 830 -155 c 10
 70 -155 l 18
 3 -155 -30 -122 -30 -85 c 10
EndSplineSet
EndChar

StartChar: plus
Encoding: 43 43 82
Width: 1040
VWidth: 1920
Flags: HMW
LayerCount: 2
Fore
SplineSet
15 685 m 14
 15 700 l 22
 15 737 48 770 115 770 c 14
 925 770 l 22
 992 770 1025 737 1025 700 c 14
 1025 685 l 22
 1025 648 992 615 925 615 c 14
 115 615 l 22
 48 615 15 648 15 685 c 14
515 1220 m 10
 525 1220 l 18
 562 1220 595 1187 595 1120 c 10
 595 240 l 18
 595 173 562 140 525 140 c 10
 515 140 l 18
 478 140 445 173 445 240 c 10
 445 1120 l 18
 445 1187 478 1220 515 1220 c 10
EndSplineSet
EndChar

StartChar: equal
Encoding: 61 61 83
Width: 1180
VWidth: 1920
Flags: HMW
LayerCount: 2
Fore
SplineSet
120 305 m 10
 120 320 l 18
 120 357 153 390 220 390 c 10
 960 390 l 18
 1027 390 1060 357 1060 320 c 10
 1060 305 l 18
 1060 268 1027 235 960 235 c 10
 220 235 l 18
 153 235 120 268 120 305 c 10
120 675 m 10
 120 690 l 18
 120 727 153 760 220 760 c 10
 960 760 l 18
 1027 760 1060 727 1060 690 c 10
 1060 675 l 18
 1060 638 1027 605 960 605 c 10
 220 605 l 18
 153 605 120 638 120 675 c 10
EndSplineSet
EndChar

StartChar: less
Encoding: 60 60 84
Width: 1010
VWidth: 1920
Flags: HMW
LayerCount: 2
Fore
SplineSet
780 126 m 2
 130 514 l 2
 85.667186235 540.353394849 70 558 70 595 c 6
 70 605 l 6
 70 642 85.667186235 659.646605151 130 686 c 2
 780 1074 l 2
 838.990135424 1109.21257315 890 1057 890 1010 c 2
 890 1000 l 2
 890 953 840.674074139 928.239628675 780 894 c 2
 259.01953125 600 l 257
 780 306 l 2
 840.674074139 271.760371325 890 247 890 200 c 2
 890 190 l 2
 890 143 838.990135424 90.7874268544 780 126 c 2
EndSplineSet
EndChar

StartChar: greater
Encoding: 62 62 85
Width: 1010
VWidth: 1920
Flags: HMW
LayerCount: 2
Fore
SplineSet
230 1074 m 2
 880 686 l 2
 924.333007812 659.646484375 940 642 940 605 c 6
 940 595 l 6
 940 558 924.333007812 540.353515625 880 514 c 2
 230 126 l 2
 171.009765625 90.787109375 120 143 120 190 c 2
 120 200 l 2
 120 247 169.326171875 271.760742188 230 306 c 2
 750.98046875 600 l 257
 230 894 l 2
 169.326171875 928.239257812 120 953 120 1000 c 2
 120 1010 l 2
 120 1057 171.009765625 1109.21289062 230 1074 c 2
EndSplineSet
EndChar

StartChar: backslash
Encoding: 92 92 86
Width: 840
VWidth: 2048
Flags: HMW
LayerCount: 2
Fore
SplineSet
791 -18 m 2
 826.478515625 -103.228515625 817 -178 760 -178 c 2
 750 -178 l 2
 704 -178 675.834960938 -127.66015625 651 -68 c 2
 114 1222 l 2
 78.521484375 1307.22851562 88 1382 145 1382 c 2
 155 1382 l 2
 202 1382 229.165039062 1331.66015625 254 1272 c 2
 791 -18 l 2
EndSplineSet
EndChar

StartChar: bracketleft
Encoding: 91 91 87
Width: 550
VWidth: 1920
Flags: HMW
LayerCount: 2
Fore
SplineSet
260 1450 m 257
 260 -210 l 257
 410 -210 l 6
 487 -210 520 -233 520 -280 c 6
 520 -290 l 6
 520 -337 487 -360 410 -360 c 6
 230 -360 l 2
 123 -360 70 -307 70 -200 c 2
 70 1440 l 2
 70 1547 123 1600 230 1600 c 2
 410 1600 l 6
 487 1600 520 1577 520 1530 c 6
 520 1520 l 6
 520 1473 487 1450 410 1450 c 6
 260 1450 l 257
EndSplineSet
EndChar

StartChar: braceleft
Encoding: 123 123 88
Width: 575
VWidth: 2048
Flags: HMW
LayerCount: 2
Fore
SplineSet
155 1278 m 258
 155 1505 217 1600 395 1600 c 0
 472 1600 505 1577 505 1550 c 2
 505 1540 l 2
 505 1503 451 1510 414 1500 c 0
 375 1489 330 1452 330 1278 c 258
 330 956 l 258
 330 771 302 668 146 620 c 257
 302 572 330 469 330 284 c 258
 330 -38 l 258
 330 -212 375 -249 414 -260 c 0
 451 -270 505 -263 505 -300 c 2
 505 -310 l 2
 505 -337 472 -360 395 -360 c 0
 217 -360 155 -265 155 -38 c 258
 155 284 l 258
 155 457 125.434272314 504.423216403 52 542 c 0
 17.4462380863 559.681379456 -2.26559657842e-15 579 0 616 c 2
 0 624 l 2
 -2.26559657842e-15 661 16.7371207052 681.421417904 50 697 c 0
 128.020628719 733.540756406 155 782 155 956 c 258
 155 1278 l 258
EndSplineSet
EndChar

StartChar: bracketright
Encoding: 93 93 89
Width: 550
VWidth: 1920
Flags: HMW
LayerCount: 2
Fore
SplineSet
290 -210 m 257
 290 1450 l 257
 140 1450 l 6
 63 1450 30 1473 30 1520 c 6
 30 1530 l 6
 30 1577 63 1600 140 1600 c 6
 320 1600 l 2
 427 1600 480 1547 480 1440 c 2
 480 -200 l 2
 480 -307 427 -360 320 -360 c 2
 140 -360 l 6
 63 -360 30 -337 30 -290 c 6
 30 -280 l 6
 30 -233 63 -210 140 -210 c 6
 290 -210 l 257
EndSplineSet
EndChar

StartChar: braceright
Encoding: 125 125 90
Width: 575
VWidth: 2048
Flags: HMW
LayerCount: 2
Fore
SplineSet
420 -38 m 258
 420 -265 358 -360 180 -360 c 0
 103 -360 70 -337 70 -310 c 2
 70 -300 l 2
 70 -263 124 -270 161 -260 c 0
 200 -249 245 -212 245 -38 c 258
 245 284 l 258
 245 469 273 572 429 620 c 257
 273 668 245 771 245 956 c 258
 245 1278 l 258
 245 1452 200 1489 161 1500 c 0
 124 1510 70 1503 70 1540 c 2
 70 1550 l 2
 70 1577 103 1600 180 1600 c 0
 358 1600 420 1505 420 1278 c 258
 420 956 l 258
 420 783 449.565429688 735.577148438 523 698 c 0
 557.553710938 680.318359375 575 661 575 624 c 2
 575 616 l 2
 575 579 558.262695312 558.578125 525 543 c 0
 446.979492188 506.458984375 420 458 420 284 c 258
 420 -38 l 258
EndSplineSet
EndChar

StartChar: bar
Encoding: 124 124 91
Width: 415
VWidth: 1920
Flags: HMW
LayerCount: 2
Fore
SplineSet
203 1630 m 2
 213 1630 l 2
 260 1630 288 1597 288 1520 c 2
 288 -280 l 2
 288 -357 259.595703125 -390 213 -390 c 2
 203 -390 l 2
 156 -390 128 -357 128 -280 c 2
 128 1520 l 2
 128 1597 156 1630 203 1630 c 2
EndSplineSet
EndChar

StartChar: asciitilde
Encoding: 126 126 92
Width: 1330
VWidth: 2048
Flags: HMW
LayerCount: 2
Fore
SplineSet
422 659 m 256
 329.912721746 659 280.324523271 589.900301893 270.083984375 517 c 0
 259.511669357 441.737851747 236.9140625 408 180 408 c 2
 170 408 l 2
 122.911132812 408 102.263335182 441.402884212 110.088867188 517 c 0
 124.418279052 655.426653571 251.445623234 809 422 809 c 256
 661 809 757 552 909 552 c 256
 1000.87221347 552 1050.59788121 610.772364152 1060.89550781 693 c 0
 1070.46386446 769.404338269 1089.10644531 803 1146 803 c 6
 1155 803 l 6
 1202.109375 803 1225.68530677 769.783757138 1219.890625 693 c 0
 1209.48189832 555.076784782 1079.28150859 402 909 402 c 256
 670 402 574 659 422 659 c 256
EndSplineSet
EndChar

StartChar: asciicircum
Encoding: 94 94 93
Width: 820
VWidth: 1920
Flags: HMW
LayerCount: 2
Fore
SplineSet
410 1191.48144531 m 257
 261 810 l 2
 238.332381521 751.964591549 217 700 170 700 c 2
 160 700 l 2
 103 700 77.3272504441 771.892636374 112 855 c 2
 306 1320 l 2
 334.428433381 1388.13426182 358 1420 405 1420 c 2
 415 1420 l 2
 462 1420 485.571566619 1388.13426182 514 1320 c 2
 708 855 l 2
 742.638387524 771.974998975 722.494140625 700 660 700 c 2
 650 700 l 2
 599.571289062 700 581.678676901 751.936278913 559 810 c 2
 410 1191.48144531 l 257
EndSplineSet
EndChar

StartChar: grave
Encoding: 96 96 94
Width: 623
VWidth: 0
Flags: HMW
LayerCount: 2
Fore
SplineSet
401 1084 m 2
 396 1084 l 2
 369 1084 342.423480821 1105.5919397 286 1157 c 6
 151 1280 l 6
 99.1344231813 1327.25530332 149 1430 216 1430 c 2
 221 1430 l 2
 268 1430 300.403496451 1411.8725673 327 1359 c 2
 410 1194 l 2
 450.201961199 1129.59880002 428 1084 401 1084 c 2
EndSplineSet
EndChar
